<svg xmlns="http://www.w3.org/2000/svg" width="900" height="506" viewBox="0 0 900 506"><rect width="100%" height="100%" fill="#DDDDDD"/><path fill="#999999" d="m409.455 191.265-8.22-13.03q4.3-3.79 9.43-7.21 5.12-3.41 11.06-5.94 5.95-2.53 12.91-3.99 6.96-1.45 15.05-1.45 11.01 0 20.05 3.03 9.05 3.04 15.5 8.67 6.45 5.63 9.99 13.6t3.54 17.83q0 9.62-2.78 16.64-2.78 7.02-6.96 12.21-4.17 5.18-9.17 8.98l-9.42 7.14q-4.43 3.36-7.66 6.58-3.22 3.23-3.85 7.28l-2.91 18.46h-21.38l-2.15-20.61q-.76-5.95 1.7-10.44 2.47-4.49 6.58-8.22 4.11-3.74 9.17-7.21 5.06-3.48 9.49-7.59 4.43-4.11 7.4-9.24 2.97-5.12 2.97-12.21 0-4.55-1.7-8.15-1.71-3.61-4.75-6.2-3.03-2.6-7.27-3.99-4.24-1.39-9.17-1.39-7.21 0-12.21 1.58-5 1.58-8.47 3.54-3.48 1.96-5.89 3.55-2.4 1.58-4.3 1.58-4.55 0-6.58-3.8Zm15.69 136.12q0-3.93 1.45-7.47 1.46-3.54 3.99-6.07 2.53-2.53 6.07-4.05 3.54-1.52 7.59-1.52t7.53 1.52q3.48 1.52 6.07 4.05 2.59 2.53 4.11 6.07 1.52 3.54 1.52 7.47 0 4.04-1.52 7.52-1.52 3.48-4.11 6.01-2.59 2.53-6.07 3.99-3.48 1.45-7.53 1.45-4.05 0-7.59-1.45-3.54-1.46-6.07-3.99-2.53-2.53-3.99-6.01-1.45-3.48-1.45-7.52Z"/></svg>