<svg width="459.619" height="41.504" viewBox="0 0 459.619 41.504" xmlns="http://www.w3.org/2000/svg"><g id="svgGroup" stroke-linecap="round" fill-rule="evenodd" font-size="9pt" stroke="#000" stroke-width="0.25mm" fill="#000" style="stroke:#000;stroke-width:0.25mm;fill:#000"><path d="M 87.183 2.173 L 101.758 1.904 L 103.76 3.296 A 9.575 9.575 0 0 1 103.345 4.634 Q 102.46 6.842 100.759 6.842 A 2.721 2.721 0 0 1 100.586 6.836 L 89.746 7.324 L 89.697 8.154 L 91.748 8.301 L 94.263 8.057 L 94.653 8.521 L 95.068 8.545 L 97.998 8.301 L 98.828 8.374 L 98.804 8.789 L 89.16 9.79 L 88.403 15.161 L 88.818 15.186 L 100.098 14.282 L 100.464 14.722 L 100.439 15.137 L 99.609 15.063 L 99.609 15.479 L 102.466 16.113 L 102.441 16.528 Q 101.562 18.787 91.099 20.212 A 109.059 109.059 0 0 1 90.527 20.288 L 86.353 20.435 L 86.743 20.85 L 84.741 26.123 L 84.326 26.123 L 84.57 22.388 L 84.155 22.363 L 83.35 28.125 Q 94.716 26.607 99.975 26.763 A 25.281 25.281 0 0 1 100.903 26.807 L 102.93 27.368 L 102.905 28.198 L 102.075 28.149 L 102.441 28.589 L 102.368 29.834 Q 101.232 31.317 97.677 31.172 A 17.52 17.52 0 0 1 97.29 31.152 L 97.266 31.567 L 100.586 31.787 L 100.513 32.617 L 81.201 35.449 L 80.786 35.425 A 7.71 7.71 0 0 1 80.106 35.245 Q 78.784 34.825 78.784 34.131 L 78.784 34.058 L 78.857 32.813 L 80.005 28.32 L 79.614 27.881 L 80.444 27.905 L 80.298 29.98 L 80.713 30.029 Q 80.949 28.025 81.64 28.025 A 0.496 0.496 0 0 1 81.689 28.027 L 81.299 27.563 L 81.592 23.438 L 80.762 23.364 L 80.2 25.415 L 80.664 25.024 L 81.079 25.049 L 80.908 27.539 L 80.493 27.49 L 80.566 26.27 L 80.151 26.245 L 80.103 27.075 L 79.688 27.051 L 79.736 26.221 L 81.055 19.214 L 80.64 19.189 L 81.592 17.188 L 81.201 16.748 L 81.226 16.333 L 82.129 9.326 L 82.52 9.766 L 82.935 9.79 L 82.983 8.96 L 82.715 6.86 L 83.374 3.149 L 83.447 1.904 L 83.862 1.953 L 84.253 2.393 L 84.692 2.002 L 85.107 2.051 L 85.498 2.466 L 85.938 2.075 L 87.183 2.173 Z M 289.16 2.173 L 303.735 1.904 L 305.737 3.296 A 9.575 9.575 0 0 1 305.322 4.634 Q 304.437 6.842 302.737 6.842 A 2.721 2.721 0 0 1 302.563 6.836 L 291.724 7.324 L 291.675 8.154 L 293.726 8.301 L 296.24 8.057 L 296.631 8.521 L 297.046 8.545 L 299.976 8.301 L 300.806 8.374 L 300.781 8.789 L 291.138 9.79 L 290.381 15.161 L 290.796 15.186 L 302.075 14.282 L 302.441 14.722 L 302.417 15.137 L 301.587 15.063 L 301.587 15.479 L 304.443 16.113 L 304.419 16.528 Q 303.539 18.787 293.077 20.212 A 109.059 109.059 0 0 1 292.505 20.288 L 288.33 20.435 L 288.721 20.85 L 286.719 26.123 L 286.304 26.123 L 286.548 22.388 L 286.133 22.363 L 285.327 28.125 Q 296.693 26.607 301.952 26.763 A 25.281 25.281 0 0 1 302.881 26.807 L 304.907 27.368 L 304.883 28.198 L 304.053 28.149 L 304.419 28.589 L 304.346 29.834 Q 303.21 31.317 299.654 31.172 A 17.52 17.52 0 0 1 299.268 31.152 L 299.243 31.567 L 302.563 31.787 L 302.49 32.617 L 283.179 35.449 L 282.764 35.425 A 7.71 7.71 0 0 1 282.083 35.245 Q 280.762 34.825 280.762 34.131 L 280.762 34.058 L 280.835 32.813 L 281.982 28.32 L 281.592 27.881 L 282.422 27.905 L 282.275 29.98 L 282.69 30.029 Q 282.926 28.025 283.618 28.025 A 0.496 0.496 0 0 1 283.667 28.027 L 283.276 27.563 L 283.569 23.438 L 282.739 23.364 L 282.178 25.415 L 282.642 25.024 L 283.057 25.049 L 282.886 27.539 L 282.471 27.49 L 282.544 26.27 L 282.129 26.245 L 282.08 27.075 L 281.665 27.051 L 281.714 26.221 L 283.032 19.214 L 282.617 19.189 L 283.569 17.188 L 283.179 16.748 L 283.203 16.333 L 284.106 9.326 L 284.497 9.766 L 284.912 9.79 L 284.961 8.96 L 284.692 6.86 L 285.352 3.149 L 285.425 1.904 L 285.84 1.953 L 286.23 2.393 L 286.67 2.002 L 287.085 2.051 L 287.476 2.466 L 287.915 2.075 L 289.16 2.173 Z M 418.335 2.173 L 432.91 1.904 L 434.912 3.296 A 9.575 9.575 0 0 1 434.497 4.634 Q 433.612 6.842 431.912 6.842 A 2.721 2.721 0 0 1 431.738 6.836 L 420.898 7.324 L 420.85 8.154 L 422.9 8.301 L 425.415 8.057 L 425.806 8.521 L 426.221 8.545 L 429.15 8.301 L 429.98 8.374 L 429.956 8.789 L 420.313 9.79 L 419.556 15.161 L 419.971 15.186 L 431.25 14.282 L 431.616 14.722 L 431.592 15.137 L 430.762 15.063 L 430.762 15.479 L 433.618 16.113 L 433.594 16.528 Q 432.714 18.787 422.251 20.212 A 109.059 109.059 0 0 1 421.68 20.288 L 417.505 20.435 L 417.896 20.85 L 415.894 26.123 L 415.479 26.123 L 415.723 22.388 L 415.308 22.363 L 414.502 28.125 Q 425.868 26.607 431.127 26.763 A 25.281 25.281 0 0 1 432.056 26.807 L 434.082 27.368 L 434.058 28.198 L 433.228 28.149 L 433.594 28.589 L 433.521 29.834 Q 432.385 31.317 428.829 31.172 A 17.52 17.52 0 0 1 428.442 31.152 L 428.418 31.567 L 431.738 31.787 L 431.665 32.617 L 412.354 35.449 L 411.938 35.425 A 7.71 7.71 0 0 1 411.258 35.245 Q 409.937 34.825 409.937 34.131 L 409.937 34.058 L 410.01 32.813 L 411.157 28.32 L 410.767 27.881 L 411.597 27.905 L 411.45 29.98 L 411.865 30.029 Q 412.101 28.025 412.792 28.025 A 0.496 0.496 0 0 1 412.842 28.027 L 412.451 27.563 L 412.744 23.438 L 411.914 23.364 L 411.353 25.415 L 411.816 25.024 L 412.231 25.049 L 412.061 27.539 L 411.646 27.49 L 411.719 26.27 L 411.304 26.245 L 411.255 27.075 L 410.84 27.051 L 410.889 26.221 L 412.207 19.214 L 411.792 19.189 L 412.744 17.188 L 412.354 16.748 L 412.378 16.333 L 413.281 9.326 L 413.672 9.766 L 414.087 9.79 L 414.136 8.96 L 413.867 6.86 L 414.526 3.149 L 414.6 1.904 L 415.015 1.953 L 415.405 2.393 L 415.845 2.002 L 416.26 2.051 L 416.65 2.466 L 417.09 2.075 L 418.335 2.173 Z M 310.986 2.515 L 314.307 2.1 L 317.212 4.59 Q 317.212 3.391 317.982 3.346 A 1.048 1.048 0 0 1 318.042 3.345 L 318.457 3.345 L 324.268 18.286 L 324.268 19.116 L 323.853 19.116 L 323.022 16.626 L 322.607 16.626 L 322.607 17.456 L 325.513 24.512 L 325.928 24.512 A 204.304 204.304 0 0 1 328.903 9.224 A 239.939 239.939 0 0 1 330.713 1.978 L 331.958 2.808 L 333.203 2.393 L 335.693 3.638 L 335.693 4.053 A 1.308 1.308 0 0 0 335.12 4.17 Q 334.448 4.494 334.448 5.713 L 334.863 5.713 L 335.278 6.128 L 335.693 6.128 L 336.108 4.053 L 336.938 4.053 L 336.938 4.468 L 336.523 4.883 L 336.938 5.298 L 336.938 5.713 A 89.48 89.48 0 0 0 335.07 12.427 Q 333.045 20.838 331.323 33.228 L 330.493 33.228 L 331.323 26.587 A 0.519 0.519 0 0 0 330.967 26.888 Q 330.323 27.888 329.329 32.211 A 125.908 125.908 0 0 0 328.833 34.473 Q 327.295 35.718 325.928 35.718 L 325.928 36.548 L 325.513 36.548 Q 325.513 35.811 324.204 35.728 A 5.589 5.589 0 0 0 323.853 35.718 L 323.853 32.813 Q 323.853 30.979 315.96 12.99 A 1084.622 1084.622 0 0 0 315.552 12.061 L 315.137 12.061 A 100.419 100.419 0 0 0 314.14 17.185 Q 313.157 22.961 312.346 30.85 A 334.872 334.872 0 0 0 312.231 31.982 L 311.816 31.567 A 7.995 7.995 0 0 0 310.907 31.89 Q 309.963 32.298 309.583 32.843 A 1.37 1.37 0 0 0 309.326 33.643 L 308.496 33.643 A 5.118 5.118 0 0 1 308.095 32.584 Q 307.666 31.002 307.666 28.247 L 307.251 28.247 L 307.251 31.982 L 306.421 31.982 L 306.006 29.907 Q 306.006 21.712 308.635 10.965 A 146.844 146.844 0 0 1 310.986 2.515 Z M 60.303 1.953 L 61.133 3.198 L 60.718 5.273 L 61.133 5.688 L 61.548 5.688 L 61.963 3.613 L 62.793 3.613 L 63.208 4.858 A 139.22 139.22 0 0 0 61.603 11.172 Q 59.888 18.71 59.888 23.535 Q 60.303 28.101 61.548 28.101 L 71.094 17.31 L 71.509 15.234 L 71.509 3.613 L 72.339 2.783 Q 73.076 2.783 73.158 4.092 A 5.589 5.589 0 0 1 73.169 4.443 L 73.584 4.443 A 1.878 1.878 0 0 1 73.714 3.717 Q 74.052 2.905 75.273 2.799 A 4.473 4.473 0 0 1 75.659 2.783 L 76.489 4.443 L 76.074 6.519 A 0.599 0.599 0 0 0 76.604 6.189 Q 76.904 5.692 76.904 4.443 L 77.734 4.443 L 78.149 4.858 L 78.564 4.858 L 76.489 34.741 L 76.074 36.401 A 2.39 2.39 0 0 0 75.417 36.484 Q 74.681 36.695 74.485 37.447 A 2.446 2.446 0 0 0 74.414 38.062 L 72.754 38.062 L 73.169 33.911 L 72.339 33.911 L 72.339 36.401 L 71.094 37.646 L 71.094 37.231 L 71.509 33.081 A 1.308 1.308 0 0 1 70.935 32.964 Q 70.264 32.64 70.264 31.421 L 69.849 31.421 L 62.793 34.741 L 59.473 33.911 L 59.473 34.326 Q 55.619 34.326 54.004 24.31 A 63.356 63.356 0 0 1 53.662 21.875 A 350.556 350.556 0 0 1 54.077 17.498 Q 55.46 3.881 56.844 3.231 A 0.324 0.324 0 0 1 56.982 3.198 L 56.982 2.783 L 57.397 2.783 L 57.397 4.443 L 56.567 4.443 L 56.567 5.273 L 56.982 5.688 L 56.982 6.104 L 56.567 6.104 L 56.982 7.349 L 55.737 9.424 L 56.152 9.424 L 56.567 9.009 L 55.322 16.479 L 55.322 18.14 L 55.737 18.14 A 128.066 128.066 0 0 1 56.196 13.477 Q 57.563 1.953 60.303 1.953 Z M 366.65 1.953 L 367.48 3.198 L 367.065 5.273 L 367.48 5.688 L 367.896 5.688 L 368.311 3.613 L 369.141 3.613 L 369.556 4.858 A 139.22 139.22 0 0 0 367.951 11.172 Q 366.235 18.71 366.235 23.535 Q 366.65 28.101 367.896 28.101 L 377.441 17.31 L 377.856 15.234 L 377.856 3.613 L 378.687 2.783 Q 379.423 2.783 379.506 4.092 A 5.589 5.589 0 0 1 379.517 4.443 L 379.932 4.443 A 1.878 1.878 0 0 1 380.061 3.717 Q 380.4 2.905 381.62 2.799 A 4.473 4.473 0 0 1 382.007 2.783 L 382.837 4.443 L 382.422 6.519 A 0.599 0.599 0 0 0 382.952 6.189 Q 383.252 5.692 383.252 4.443 L 384.082 4.443 L 384.497 4.858 L 384.912 4.858 L 382.837 34.741 L 382.422 36.401 A 2.39 2.39 0 0 0 381.765 36.484 Q 381.028 36.695 380.832 37.447 A 2.446 2.446 0 0 0 380.762 38.062 L 379.102 38.062 L 379.517 33.911 L 378.687 33.911 L 378.687 36.401 L 377.441 37.646 L 377.441 37.231 L 377.856 33.081 A 1.308 1.308 0 0 1 377.283 32.964 Q 376.611 32.64 376.611 31.421 L 376.196 31.421 L 369.141 34.741 L 365.82 33.911 L 365.82 34.326 Q 361.966 34.326 360.352 24.31 A 63.356 63.356 0 0 1 360.01 21.875 A 350.556 350.556 0 0 1 360.425 17.498 Q 361.808 3.881 363.191 3.231 A 0.324 0.324 0 0 1 363.33 3.198 L 363.33 2.783 L 363.745 2.783 L 363.745 4.443 L 362.915 4.443 L 362.915 5.273 L 363.33 5.688 L 363.33 6.104 L 362.915 6.104 L 363.33 7.349 L 362.085 9.424 L 362.5 9.424 L 362.915 9.009 L 361.67 16.479 L 361.67 18.14 L 362.085 18.14 A 128.066 128.066 0 0 1 362.544 13.477 Q 363.911 1.953 366.65 1.953 Z M 123.73 1.245 L 127.051 15.771 L 129.956 15.771 L 129.956 16.187 L 127.466 16.602 L 127.466 17.017 Q 128.665 17.017 128.709 17.786 A 1.048 1.048 0 0 1 128.711 17.847 L 132.031 17.847 L 132.031 18.262 Q 132.031 19.139 128.32 19.842 A 35.908 35.908 0 0 1 127.881 19.922 L 128.711 22.412 L 128.296 23.657 L 128.711 26.147 L 128.296 26.563 L 128.711 26.563 L 128.296 26.978 L 128.711 31.958 L 128.711 34.448 L 128.296 34.033 L 127.881 34.033 L 129.126 40.259 L 128.296 40.259 Q 128.296 39.06 127.526 39.015 A 1.048 1.048 0 0 0 127.466 39.014 L 127.466 39.429 L 127.881 40.674 L 127.466 40.674 L 127.051 40.259 L 126.636 40.259 Q 126.636 41.458 125.866 41.502 A 1.048 1.048 0 0 1 125.806 41.504 L 123.73 34.448 L 123.315 34.448 L 123.315 36.108 L 122.9 36.108 L 122.07 31.128 L 123.315 31.958 L 123.315 31.543 A 24.01 24.01 0 0 0 123.181 30.369 Q 122.818 27.808 122.07 27.808 L 122.485 27.393 L 122.485 26.147 L 121.655 26.147 L 121.655 27.393 L 121.24 27.393 L 121.24 25.732 L 121.655 25.317 L 121.24 25.317 L 120.825 25.732 L 120.825 24.072 L 121.24 24.072 L 121.655 24.487 L 122.07 24.487 L 121.655 24.072 L 121.655 21.582 L 112.524 23.657 L 112.524 24.487 L 115.43 23.657 L 117.09 24.072 L 119.165 23.657 L 119.165 24.487 Q 112.611 25.662 110.985 27.417 A 1.78 1.78 0 0 0 110.449 28.638 Q 109.351 33.203 107.959 34.448 L 107.959 35.278 L 106.714 35.278 L 106.299 34.863 L 105.884 34.863 L 105.884 35.278 L 104.639 34.448 L 105.469 31.958 L 105.054 31.958 Q 103.894 31.958 103.814 34.839 A 15.951 15.951 0 0 0 103.809 35.278 L 102.979 34.448 L 103.394 31.958 L 102.148 30.713 L 109.204 13.696 L 109.619 13.696 Q 109.619 14.895 110.389 14.94 A 1.048 1.048 0 0 0 110.449 14.941 L 110.864 12.866 L 110.449 13.281 L 110.034 13.281 L 110.034 11.621 L 110.449 9.546 L 110.864 9.961 L 111.279 9.961 L 110.864 9.546 L 110.864 9.131 L 111.694 7.471 L 112.109 7.471 L 112.524 7.886 L 112.939 7.886 L 112.939 7.471 A 0.76 0.76 0 0 0 112.819 7.035 Q 112.553 6.641 111.694 6.641 L 113.77 0.83 L 115.43 0.83 L 115.015 1.245 L 115.015 1.66 A 14.545 14.545 0 0 1 117.124 0.648 Q 118.353 0.184 119.508 0.052 A 7.962 7.962 0 0 1 120.41 0 A 1.161 1.161 0 0 0 120.998 0.756 Q 121.783 1.224 123.571 1.244 A 14.424 14.424 0 0 0 123.73 1.245 Z M 218.042 1.245 L 221.362 15.771 L 224.268 15.771 L 224.268 16.187 L 221.777 16.602 L 221.777 17.017 Q 222.976 17.017 223.021 17.786 A 1.048 1.048 0 0 1 223.022 17.847 L 226.343 17.847 L 226.343 18.262 Q 226.343 19.139 222.632 19.842 A 35.908 35.908 0 0 1 222.192 19.922 L 223.022 22.412 L 222.607 23.657 L 223.022 26.147 L 222.607 26.563 L 223.022 26.563 L 222.607 26.978 L 223.022 31.958 L 223.022 34.448 L 222.607 34.033 L 222.192 34.033 L 223.438 40.259 L 222.607 40.259 Q 222.607 39.06 221.838 39.015 A 1.048 1.048 0 0 0 221.777 39.014 L 221.777 39.429 L 222.192 40.674 L 221.777 40.674 L 221.362 40.259 L 220.947 40.259 Q 220.947 41.458 220.177 41.502 A 1.048 1.048 0 0 1 220.117 41.504 L 218.042 34.448 L 217.627 34.448 L 217.627 36.108 L 217.212 36.108 L 216.382 31.128 L 217.627 31.958 L 217.627 31.543 A 24.01 24.01 0 0 0 217.493 30.369 Q 217.13 27.808 216.382 27.808 L 216.797 27.393 L 216.797 26.147 L 215.967 26.147 L 215.967 27.393 L 215.552 27.393 L 215.552 25.732 L 215.967 25.317 L 215.552 25.317 L 215.137 25.732 L 215.137 24.072 L 215.552 24.072 L 215.967 24.487 L 216.382 24.487 L 215.967 24.072 L 215.967 21.582 L 206.836 23.657 L 206.836 24.487 L 209.741 23.657 L 211.401 24.072 L 213.477 23.657 L 213.477 24.487 Q 206.922 25.662 205.297 27.417 A 1.78 1.78 0 0 0 204.761 28.638 Q 203.662 33.203 202.271 34.448 L 202.271 35.278 L 201.025 35.278 L 200.61 34.863 L 200.195 34.863 L 200.195 35.278 L 198.95 34.448 L 199.78 31.958 L 199.365 31.958 Q 198.205 31.958 198.126 34.839 A 15.951 15.951 0 0 0 198.12 35.278 L 197.29 34.448 L 197.705 31.958 L 196.46 30.713 L 203.516 13.696 L 203.931 13.696 Q 203.931 14.895 204.701 14.94 A 1.048 1.048 0 0 0 204.761 14.941 L 205.176 12.866 L 204.761 13.281 L 204.346 13.281 L 204.346 11.621 L 204.761 9.546 L 205.176 9.961 L 205.591 9.961 L 205.176 9.546 L 205.176 9.131 L 206.006 7.471 L 206.421 7.471 L 206.836 7.886 L 207.251 7.886 L 207.251 7.471 A 0.76 0.76 0 0 0 207.131 7.035 Q 206.864 6.641 206.006 6.641 L 208.081 0.83 L 209.741 0.83 L 209.326 1.245 L 209.326 1.66 A 14.545 14.545 0 0 1 211.435 0.648 Q 212.664 0.184 213.82 0.052 A 7.962 7.962 0 0 1 214.722 0 A 1.161 1.161 0 0 0 215.309 0.756 Q 216.094 1.224 217.882 1.244 A 14.424 14.424 0 0 0 218.042 1.245 Z M 141.138 1.416 L 141.553 5.151 A 0.643 0.643 0 0 0 142.036 4.902 Q 142.437 4.45 142.702 3.178 A 13.264 13.264 0 0 0 142.798 2.661 L 143.213 2.661 L 143.628 4.321 L 142.383 10.962 L 146.948 7.642 L 147.363 7.642 L 142.383 12.207 L 142.383 12.622 L 151.929 5.566 L 152.344 5.981 A 69.318 69.318 0 0 1 154.31 4.43 Q 157.328 2.143 158.935 1.591 A 2.782 2.782 0 0 1 159.814 1.416 L 160.229 1.416 L 160.645 3.076 L 157.324 6.396 L 157.739 6.396 A 3.588 3.588 0 0 1 158.322 5.539 A 2.503 2.503 0 0 1 160.229 4.736 L 160.645 5.151 L 160.645 4.736 L 160.229 4.321 L 160.645 3.906 L 161.89 3.906 L 162.305 5.151 Q 159.18 6.616 147.778 15.942 Q 150.123 21.06 155.5 29.21 A 250.728 250.728 0 0 0 157.739 32.544 L 157.739 33.374 L 157.324 36.279 L 156.909 35.864 L 156.494 35.864 L 156.079 37.524 L 154.419 37.524 L 154.419 36.694 L 154.004 36.694 L 154.004 37.524 L 153.174 37.524 A 2.819 2.819 0 0 0 152.879 36.597 Q 151.574 33.655 144.492 22.852 A 663.335 663.335 0 0 0 144.043 22.168 L 143.213 19.678 L 141.138 20.093 A 82.974 82.974 0 0 1 140.882 23.573 Q 140.338 29.225 139.126 31.611 A 4.881 4.881 0 0 1 138.525 32.544 L 138.525 32.959 L 134.375 32.544 L 134.375 31.299 L 134.79 28.394 A 0.994 0.994 0 0 1 133.861 27.781 Q 133.615 27.297 133.561 26.431 A 8.383 8.383 0 0 1 133.545 25.903 A 41.322 41.322 0 0 1 133.759 24.708 Q 134.335 21.753 134.912 21.753 L 134.497 21.338 A 211.036 211.036 0 0 1 134.964 17.375 Q 135.965 9.568 136.966 7.681 A 3.168 3.168 0 0 1 136.987 7.642 L 136.572 6.396 L 137.817 3.076 L 137.817 2.661 L 137.402 2.246 L 137.402 1.831 L 138.232 1.831 L 138.232 4.736 L 138.647 4.736 L 139.063 3.491 L 138.647 3.076 L 138.647 2.661 A 1.607 1.607 0 0 1 139.608 1.667 Q 140.205 1.416 141.138 1.416 Z M 386.475 5.42 L 393.945 1.685 L 398.926 1.685 Q 402.86 2.423 405.018 4.017 A 6.081 6.081 0 0 1 407.642 9.155 L 407.642 11.646 L 403.491 17.456 L 403.906 17.456 L 408.057 13.721 L 408.057 14.551 A 18.12 18.12 0 0 1 406.618 17.192 Q 404.911 19.752 402.661 20.776 L 400.171 21.606 L 400.171 23.267 Q 400.959 23.267 407.006 31.48 A 400.915 400.915 0 0 1 408.887 34.058 Q 410.439 34.697 411.992 37.044 A 17.715 17.715 0 0 1 412.207 37.378 L 412.207 37.793 L 410.132 36.133 L 410.132 36.548 Q 412.034 38.562 412.193 39.673 A 1.379 1.379 0 0 1 412.207 39.868 L 411.792 39.868 L 409.717 41.113 L 409.302 41.113 L 408.472 39.868 L 408.057 40.283 L 407.642 40.283 A 58.243 58.243 0 0 1 402.217 35.282 Q 399.657 32.58 397.877 29.859 A 28.634 28.634 0 0 1 396.021 26.587 L 393.945 22.437 A 0.955 0.955 0 0 0 393.154 22.923 Q 392.588 23.747 392.379 25.965 A 26.569 26.569 0 0 0 392.285 27.417 A 41.067 41.067 0 0 1 392.331 28.259 Q 392.449 30.929 392.098 32.001 A 1.606 1.606 0 0 1 391.87 32.471 A 3.051 3.051 0 0 0 391.532 32.79 Q 390.792 33.616 391.43 34.441 A 2.043 2.043 0 0 0 391.455 34.473 L 391.455 35.303 L 390.21 35.303 Q 389.473 35.303 389.39 33.994 A 5.589 5.589 0 0 1 389.38 33.643 L 388.965 33.643 Q 388.965 35.253 387.494 34.911 A 3.078 3.078 0 0 1 387.402 34.888 L 385.571 32.446 L 386.06 28.662 L 386.06 27.002 L 388.55 15.381 L 388.965 15.381 L 388.965 17.041 L 389.38 17.041 L 391.455 8.325 Q 390.718 8.325 390.635 9.634 A 5.589 5.589 0 0 0 390.625 9.985 L 390.21 9.985 L 390.21 9.155 L 387.72 9.155 L 387.72 8.74 A 0.643 0.643 0 0 1 387.969 8.257 Q 388.421 7.856 389.693 7.591 A 13.264 13.264 0 0 1 390.21 7.495 L 390.21 7.08 L 389.38 7.08 L 386.89 7.91 L 386.475 7.91 Q 386.475 7.173 387.783 7.091 A 5.589 5.589 0 0 1 388.135 7.08 L 388.135 6.665 A 3.253 3.253 0 0 1 387.534 6.615 Q 386.475 6.415 386.475 5.42 Z M 174.976 7.031 L 180.176 0.854 L 180.591 0.854 L 180.591 1.685 L 181.006 1.27 L 181.421 1.27 Q 184.201 2.204 184.321 2.87 A 0.335 0.335 0 0 1 184.326 2.93 L 182.251 5.42 L 183.081 5.42 A 4.946 4.946 0 0 0 183.798 4.977 Q 184.151 4.71 184.373 4.414 A 1.751 1.751 0 0 0 184.741 3.345 L 185.986 3.345 L 185.986 3.76 L 185.571 4.175 L 185.986 4.59 L 185.986 5.005 Q 171.574 20.515 171.574 29.868 A 11.871 11.871 0 0 0 171.582 30.298 L 170.752 34.424 L 171.167 34.839 L 171.167 35.254 L 169.092 38.989 L 165.771 38.574 L 165.771 35.254 L 164.526 33.618 L 164.526 32.788 L 164.941 27.808 L 165.356 28.223 L 165.771 28.223 L 165.356 27.808 L 165.356 27.393 L 165.771 26.978 L 165.771 26.563 L 165.356 26.147 L 166.602 25.732 L 166.187 27.808 L 166.187 29.468 L 166.602 29.468 L 167.09 24.463 L 166.675 23.218 L 166.26 23.218 L 166.26 24.463 L 165.845 24.463 L 165.43 21.143 L 165.845 20.728 L 165.845 20.313 L 160.132 5.737 L 160.132 4.907 L 160.962 4.907 L 160.132 2.832 L 160.547 2.417 L 161.377 2.417 A 0.84 0.84 0 0 1 162.058 2.78 Q 162.452 3.284 162.622 4.492 L 163.867 3.662 L 165.112 3.662 A 5.815 5.815 0 0 0 165.326 5.057 Q 165.916 7.358 168.132 11.737 A 117.635 117.635 0 0 0 169.58 14.502 Q 171.973 9.961 173.73 9.106 L 173.73 9.521 Q 170.261 13.93 169.692 15.318 A 1.225 1.225 0 0 0 169.58 15.747 L 169.58 16.162 L 169.995 16.162 L 179.761 2.93 L 179.761 2.515 L 174.976 7.446 L 174.976 7.031 Z M 340.112 1.978 L 362.524 1.147 L 363.77 1.563 L 363.77 2.393 L 362.524 2.393 L 363.354 3.638 Q 362.451 5.713 356.714 5.713 L 353.809 6.128 L 353.394 7.373 L 353.809 7.373 A 14.03 14.03 0 0 0 353.254 9.207 Q 351.863 14.754 348.828 33.936 L 350.073 39.331 L 349.658 39.331 Q 348.781 39.331 348.078 35.62 A 35.908 35.908 0 0 1 347.998 35.181 L 348.413 31.03 L 348.413 30.615 L 347.998 30.615 L 347.998 31.445 Q 346.799 31.445 346.755 32.215 A 1.048 1.048 0 0 0 346.753 32.275 L 346.753 32.69 L 347.583 39.331 L 347.583 39.746 L 346.753 39.746 L 345.093 38.501 L 344.678 38.916 L 344.263 38.916 Q 343.119 36.444 342.763 34.424 A 10.006 10.006 0 0 1 342.603 32.69 L 343.018 33.105 L 343.433 33.105 L 342.603 30.2 L 343.848 29.785 L 343.848 27.71 L 343.018 27.71 L 343.018 27.295 Q 344.217 27.295 344.261 26.525 A 1.048 1.048 0 0 0 344.263 26.465 L 344.263 26.05 L 343.433 26.05 A 13.525 13.525 0 0 1 343.469 25.007 Q 343.647 22.729 344.678 22.729 L 344.678 17.334 A 1.266 1.266 0 0 0 344.936 16.853 Q 345.522 15.237 346.332 8.664 A 235.11 235.11 0 0 0 346.338 8.618 L 343.433 9.033 L 337.622 8.618 L 337.622 8.203 L 339.697 7.788 L 339.697 8.203 L 340.112 7.788 L 346.338 7.788 L 346.338 6.543 L 339.697 7.373 L 339.282 6.958 L 338.867 6.958 L 336.377 7.373 L 335.132 6.543 L 335.547 4.468 L 335.132 4.053 A 1.528 1.528 0 0 1 335.986 2.69 Q 337.194 1.978 340.112 1.978 Z M 5.518 7.104 L 12.939 1.294 A 2.286 2.286 0 0 0 13.641 1.615 Q 15.3 2.12 19.847 2.124 A 82.982 82.982 0 0 0 19.922 2.124 L 19.897 2.539 L 16.992 2.539 L 16.968 2.954 A 16.705 16.705 0 0 1 19.124 3.082 Q 22.461 3.518 23.462 5.444 L 23.413 6.274 L 21.338 6.274 L 21.313 6.689 L 24.194 7.104 L 24.17 7.52 L 21.68 7.52 L 21.655 7.935 Q 22.9 7.935 22.852 8.765 A 18.684 18.684 0 0 0 10.376 13.507 A 24.264 24.264 0 0 0 9.644 14.16 L 9.619 14.575 Q 17.651 16.724 22.339 24.121 L 22.314 24.536 Q 21.153 28.656 16.789 32.317 A 32.016 32.016 0 0 1 13.843 34.497 L 11.304 34.912 L 11.279 35.327 L 12.109 35.327 Q 12.061 36.45 4.492 37.817 L 4.541 36.987 L 6.616 36.987 L 6.665 36.572 A 4.943 4.943 0 0 1 3.723 35.575 Q 2.991 35.048 2.309 34.242 A 11.18 11.18 0 0 1 1.855 33.667 Q 0 32.715 0 30.029 A 5.451 5.451 0 0 1 0.013 29.658 A 6.325 6.325 0 0 1 0.024 29.517 L 1.318 28.687 L 2.515 29.517 L 3.345 29.517 A 38.847 38.847 0 0 0 7.489 28.656 Q 11.677 27.521 13.659 25.646 A 5.313 5.313 0 0 0 15.43 22.046 Q 10.522 19.556 8.936 19.556 L 8.911 19.971 L 4.834 18.311 L 5.225 18.726 L 5.2 19.556 A 38.644 38.644 0 0 1 3.482 18.221 Q 0.144 15.46 0.144 13.838 A 1.531 1.531 0 0 1 0.146 13.745 L 3.394 7.935 L 5.566 6.274 L 5.518 7.104 Z M 440.942 7.104 L 448.364 1.294 A 2.286 2.286 0 0 0 449.066 1.615 Q 450.725 2.12 455.271 2.124 A 82.982 82.982 0 0 0 455.347 2.124 L 455.322 2.539 L 452.417 2.539 L 452.393 2.954 A 16.705 16.705 0 0 1 454.548 3.082 Q 457.886 3.518 458.887 5.444 L 458.838 6.274 L 456.763 6.274 L 456.738 6.689 L 459.619 7.104 L 459.595 7.52 L 457.104 7.52 L 457.08 7.935 Q 458.325 7.935 458.276 8.765 A 18.684 18.684 0 0 0 445.801 13.507 A 24.264 24.264 0 0 0 445.068 14.16 L 445.044 14.575 Q 453.076 16.724 457.764 24.121 L 457.739 24.536 Q 456.578 28.656 452.213 32.317 A 32.016 32.016 0 0 1 449.268 34.497 L 446.729 34.912 L 446.704 35.327 L 447.534 35.327 Q 447.485 36.45 439.917 37.817 L 439.966 36.987 L 442.041 36.987 L 442.09 36.572 A 4.943 4.943 0 0 1 439.147 35.575 Q 438.416 35.048 437.734 34.242 A 11.18 11.18 0 0 1 437.28 33.667 Q 435.425 32.715 435.425 30.029 A 5.451 5.451 0 0 1 435.438 29.658 A 6.325 6.325 0 0 1 435.449 29.517 L 436.743 28.687 L 437.939 29.517 L 438.77 29.517 A 38.847 38.847 0 0 0 442.914 28.656 Q 447.102 27.521 449.084 25.646 A 5.313 5.313 0 0 0 450.854 22.046 Q 445.947 19.556 444.36 19.556 L 444.336 19.971 L 440.259 18.311 L 440.649 18.726 L 440.625 19.556 A 38.644 38.644 0 0 1 438.907 18.221 Q 435.568 15.46 435.568 13.838 A 1.531 1.531 0 0 1 435.571 13.745 L 438.818 7.935 L 440.991 6.274 L 440.942 7.104 Z M 271.655 12.622 A 126.22 126.22 0 0 0 270.065 14.924 Q 267.623 18.546 266.201 21.274 A 27.616 27.616 0 0 0 265.015 23.828 L 264.6 23.828 L 264.6 21.753 L 265.015 21.338 L 264.185 21.338 L 264.185 17.603 L 263.77 17.188 L 264.185 17.188 Q 263.329 11.397 262.276 7.291 A 45.278 45.278 0 0 0 261.279 3.906 L 260.449 3.906 L 260.449 5.151 L 260.034 5.151 A 4.192 4.192 0 0 0 260.027 4.911 Q 259.886 2.456 256.809 1.958 A 11.052 11.052 0 0 0 255.054 1.831 L 255.884 4.321 L 255.469 5.566 Q 257.487 5.566 258.168 21.817 A 341.16 341.16 0 0 1 258.374 28.394 L 258.374 30.884 L 257.959 31.299 L 258.374 31.299 L 257.959 32.544 L 258.374 34.619 L 259.204 34.619 L 259.619 34.204 L 259.619 33.789 L 259.204 33.374 L 259.204 32.129 L 260.034 31.299 L 259.619 32.544 A 4.28 4.28 0 0 0 259.743 33.62 Q 260.219 35.449 262.524 35.449 L 263.354 35.449 Q 263.354 34.23 264.026 33.906 A 1.308 1.308 0 0 1 264.6 33.789 L 265.015 34.204 L 265.845 34.204 L 274.561 18.433 A 89.068 89.068 0 0 1 275.564 16.941 Q 278.027 13.362 279.682 11.819 A 6.501 6.501 0 0 1 280.786 10.962 L 280.786 9.717 A 1.834 1.834 0 0 0 280.325 9.77 Q 279.761 9.917 279.603 10.469 A 1.792 1.792 0 0 0 279.541 10.962 L 278.711 10.962 Q 278.711 10.125 279.765 9.831 A 4.01 4.01 0 0 1 280.371 9.717 L 280.371 8.472 A 12.505 12.505 0 0 0 279.405 9.158 Q 278.505 9.871 278.136 10.515 A 1.737 1.737 0 0 0 277.881 11.377 L 276.636 11.377 L 278.711 8.887 L 277.051 7.227 L 276.221 7.227 L 271.655 12.207 L 271.655 12.622 L 272.07 13.037 L 272.9 11.792 L 272.485 11.792 L 271.655 12.622 L 271.655 12.207 M 41.333 1.978 L 41.333 1.563 L 41.748 1.563 L 42.163 1.978 L 42.578 1.563 L 42.993 1.563 Q 51.559 5.506 52.438 11.061 A 8.253 8.253 0 0 1 52.539 12.354 L 52.539 15.259 A 23.879 23.879 0 0 1 46.729 31.03 L 46.729 31.86 A 11.704 11.704 0 0 1 48.604 33.467 Q 49.413 34.312 50.185 35.393 A 23.018 23.018 0 0 1 50.879 36.426 L 50.879 36.841 A 45.715 45.715 0 0 1 49.933 38.225 Q 47.961 40.991 47.144 40.991 Q 44.616 40.991 41.827 35.746 A 32.16 32.16 0 0 1 41.748 35.596 L 38.843 36.011 L 36.353 36.011 L 33.862 35.596 L 33.447 35.596 L 33.447 36.011 L 35.522 36.426 L 35.522 36.841 L 33.032 37.256 A 27.335 27.335 0 0 1 29.425 35.118 Q 24.893 31.889 24.381 27.905 A 8.045 8.045 0 0 1 24.316 26.88 A 34.534 34.534 0 0 1 25.014 19.707 Q 26.469 12.858 30.957 8.618 L 30.957 8.203 A 54.428 54.428 0 0 1 32.522 6.369 Q 34.87 3.75 36.285 3.057 A 2.093 2.093 0 0 1 37.183 2.808 L 37.183 3.223 L 37.598 3.638 L 41.333 1.978 Z M 232.788 2.612 L 233.618 1.782 L 235.278 1.782 L 236.523 2.612 L 239.429 2.197 A 13.055 13.055 0 0 1 246.867 4.609 Q 248.863 5.963 250.755 8.076 A 31.697 31.697 0 0 1 252.71 10.498 L 254.785 14.648 L 254.37 15.063 L 254.785 17.139 L 254.785 19.214 Q 254.785 29.883 237.354 35.4 L 233.203 35.815 Q 233.203 34.969 232.125 34.678 A 4.063 4.063 0 0 0 231.543 34.57 L 231.543 36.23 L 230.298 36.23 L 230.298 33.74 L 229.883 33.325 L 230.298 32.91 L 230.298 32.495 A 14.326 14.326 0 0 1 229.358 31.797 Q 227.808 30.534 227.808 29.59 A 247.283 247.283 0 0 1 228.534 20.828 Q 229.43 12.058 230.81 6.261 A 46.068 46.068 0 0 1 231.958 2.197 L 232.373 2.197 L 232.788 2.612 Z M 30.127 23.975 L 30.127 24.805 A 8.025 8.025 0 0 0 30.421 27.039 A 5.882 5.882 0 0 0 32.617 30.2 L 33.862 30.2 A 4.599 4.599 0 0 0 35.906 29.688 Q 37.342 28.98 38.843 27.295 L 37.183 23.145 L 37.598 22.729 L 38.428 22.729 L 38.428 23.56 L 38.843 23.145 L 39.258 23.145 L 42.163 23.975 Q 46.313 17.48 46.313 12.354 L 46.313 10.278 A 4.143 4.143 0 0 0 45.459 9.108 Q 44.492 8.203 42.993 8.203 A 5.341 5.341 0 0 0 40.621 8.844 Q 37.716 10.3 33.85 15.06 A 60.934 60.934 0 0 0 33.032 16.089 A 50.277 50.277 0 0 0 31.83 18.458 Q 30.167 21.983 30.128 23.884 A 4.406 4.406 0 0 0 30.127 23.975 Z M 243.164 8.838 L 238.599 8.838 Q 238.599 9.575 237.29 9.658 A 5.589 5.589 0 0 1 236.938 9.668 A 110.712 110.712 0 0 0 235.564 17.268 Q 234.889 21.86 234.448 27.1 Q 236.833 27.1 246.635 23.058 A 251.443 251.443 0 0 0 246.899 22.949 L 246.899 22.534 L 246.069 22.534 A 14.137 14.137 0 0 0 247.925 20.224 Q 248.944 18.615 249.254 16.949 A 8.018 8.018 0 0 0 249.39 15.479 L 249.39 14.233 A 4.776 4.776 0 0 0 248.568 11.409 Q 247.128 9.366 243.164 8.838 Z M 181.006 7.08 L 180.591 7.08 A 322.957 322.957 0 0 0 178.497 9.792 Q 173.094 16.869 171.958 19.329 A 2.664 2.664 0 0 0 171.655 20.313 L 172.485 20.313 A 85.814 85.814 0 0 1 181.006 7.08 Z M 396.436 7.08 L 394.36 16.626 L 394.775 16.626 A 41.204 41.204 0 0 0 398.385 14.685 Q 401.9 12.545 403.715 10.236 A 11.677 11.677 0 0 0 403.906 9.985 L 403.906 9.155 A 1.142 1.142 0 0 0 403.544 8.387 Q 402.798 7.588 400.509 6.766 A 30.969 30.969 0 0 0 398.926 6.25 L 396.436 7.08 Z M 232.373 5.933 L 231.958 5.933 L 229.883 17.969 L 229.883 18.384 L 230.298 18.384 L 232.373 6.763 L 232.373 5.933 Z M 7.275 12.5 L 7.251 12.915 L 14.575 8.35 L 17.944 7.52 L 17.993 6.689 L 17.163 6.689 A 40.04 40.04 0 0 0 13.034 8.476 Q 9.455 10.288 7.275 12.5 Z M 442.7 12.5 L 442.676 12.915 L 450 8.35 L 453.369 7.52 L 453.418 6.689 L 452.588 6.689 A 40.04 40.04 0 0 0 448.459 8.476 Q 444.88 10.288 442.7 12.5 Z M 50.879 11.938 L 50.464 11.938 A 47.124 47.124 0 0 1 49.875 19.504 A 40.908 40.908 0 0 1 49.219 22.729 L 49.219 23.145 L 49.634 23.145 L 51.294 14.429 L 50.879 11.938 Z M 118.335 9.546 L 117.92 9.546 L 114.6 18.262 L 115.43 18.262 A 10.437 10.437 0 0 0 116.962 18.159 Q 118.796 17.885 119.537 16.884 A 2.539 2.539 0 0 0 119.995 15.771 L 118.335 9.546 Z M 212.646 9.546 L 212.231 9.546 L 208.911 18.262 L 209.741 18.262 A 10.437 10.437 0 0 0 211.273 18.159 Q 213.107 17.885 213.849 16.884 A 2.539 2.539 0 0 0 214.307 15.771 L 212.646 9.546 Z M 345.093 25.635 L 344.678 25.635 L 343.848 34.766 L 344.678 34.766 L 344.263 32.69 L 344.263 31.86 L 345.093 30.615 L 344.678 30.615 L 345.093 30.2 L 345.093 29.785 L 344.678 29.37 L 344.678 28.955 L 345.508 27.295 L 345.093 25.635 Z M 152.344 3.906 L 150.684 5.566 L 150.269 5.566 L 151.929 3.906 L 152.344 3.906 L 152.759 3.906 L 156.494 1.416 L 156.909 1.416 L 157.324 1.831 L 157.739 1.416 L 157.739 1.001 L 157.324 0.586 Q 153.472 2.304 152.599 3.351 A 0.91 0.91 0 0 0 152.344 3.906 Z M 90.894 21.143 L 94.678 20.581 L 95.093 20.581 L 95.044 20.996 L 87.524 21.753 L 87.134 21.289 L 87.158 20.898 L 90.918 20.728 L 90.894 21.143 Z M 292.871 21.143 L 296.655 20.581 L 297.07 20.581 L 297.021 20.996 L 289.502 21.753 L 289.111 21.289 L 289.136 20.898 L 292.896 20.728 L 292.871 21.143 Z M 422.046 21.143 L 425.83 20.581 L 426.245 20.581 L 426.196 20.996 L 418.677 21.753 L 418.286 21.289 L 418.311 20.898 L 422.07 20.728 L 422.046 21.143 Z M 47.559 12.354 L 47.144 12.354 A 10.429 10.429 0 0 1 47.026 13.805 Q 46.703 16.077 45.483 19.824 A 2.144 2.144 0 0 0 46.643 18.817 Q 47.472 17.424 47.55 14.275 A 27.227 27.227 0 0 0 47.559 13.599 L 47.559 12.354 Z M 253.955 17.969 L 253.54 17.969 L 251.465 24.609 L 251.465 25.024 L 251.88 25.024 L 253.955 18.799 L 253.955 17.969 Z M 28.882 30.615 L 28.467 30.615 L 28.467 31.03 A 2.393 2.393 0 0 0 28.891 32.313 Q 29.858 33.83 33.032 35.596 L 33.032 35.181 A 18.66 18.66 0 0 1 31.409 34.044 Q 29.178 32.28 28.882 30.615 Z M 272.07 9.717 L 272.07 10.132 L 268.335 15.112 L 268.335 14.697 Q 269.026 12.997 270.68 11.143 A 23.764 23.764 0 0 1 272.07 9.717 Z M 40.503 6.128 L 41.748 6.543 L 45.068 5.713 L 45.068 5.298 L 43.408 5.298 L 42.993 5.713 L 42.578 5.713 L 42.578 5.298 L 42.993 4.883 L 42.993 4.468 L 42.163 4.468 A 2.887 2.887 0 0 0 41.397 4.819 A 2.086 2.086 0 0 0 40.503 6.128 Z M 59.058 30.591 L 59.058 31.006 Q 59.058 32.446 62.793 33.496 L 63.623 33.496 L 63.623 33.081 A 5.009 5.009 0 0 1 61.081 32.329 Q 60.337 31.886 59.617 31.182 A 11.008 11.008 0 0 1 59.058 30.591 Z M 365.405 30.591 L 365.405 31.006 Q 365.405 32.446 369.141 33.496 L 369.971 33.496 L 369.971 33.081 A 5.009 5.009 0 0 1 367.428 32.329 Q 366.685 31.886 365.965 31.182 A 11.008 11.008 0 0 1 365.405 30.591 Z M 45.483 28.54 L 45.483 28.955 L 45.898 28.955 L 48.804 24.805 L 48.804 24.39 A 12.251 12.251 0 0 0 45.483 28.54 Z M 251.05 14.648 L 250.635 14.648 L 250.22 19.629 L 251.05 19.629 L 251.05 18.384 L 251.465 16.724 L 251.05 14.648 Z M 114.6 12.036 L 114.185 12.036 L 113.354 14.941 L 112.939 14.526 L 112.524 14.526 L 112.939 16.187 L 113.354 16.187 L 114.6 12.451 L 114.6 12.036 Z M 208.911 12.036 L 208.496 12.036 L 207.666 14.941 L 207.251 14.526 L 206.836 14.526 L 207.251 16.187 L 207.666 16.187 L 208.911 12.451 L 208.911 12.036 Z M 149.854 32.129 A 0.769 0.769 0 0 1 150.393 32.405 Q 151.168 33.199 151.929 36.279 L 151.929 36.694 L 151.514 36.694 L 149.854 32.129 Z M 119.58 18.262 L 115.43 19.092 L 115.43 19.507 L 116.26 19.507 A 26.297 26.297 0 0 0 117.433 19.352 Q 119.995 18.949 119.995 18.262 L 119.58 18.262 Z M 213.892 18.262 L 209.741 19.092 L 209.741 19.507 L 210.571 19.507 A 26.297 26.297 0 0 0 211.745 19.352 Q 214.307 18.949 214.307 18.262 L 213.892 18.262 Z M 259.619 17.603 L 259.204 17.603 L 259.204 22.168 L 259.619 22.168 L 259.619 17.603 Z M 45.483 21.899 L 45.068 21.899 Q 42.922 24.13 42.626 25.291 A 1.398 1.398 0 0 0 42.578 25.635 Q 43.896 25.049 45.483 21.899 Z M 68.604 21.875 L 68.188 21.875 L 65.283 25.195 L 65.698 25.195 L 68.604 21.875 Z M 374.951 21.875 L 374.536 21.875 L 371.631 25.195 L 372.046 25.195 L 374.951 21.875 Z M 138.232 5.981 L 137.817 5.981 L 137.402 8.472 L 137.402 10.132 L 137.817 10.132 L 138.232 6.396 L 138.232 5.981 Z M 324.268 19.116 A 0.827 0.827 0 0 1 324.884 19.432 Q 325.523 20.141 325.928 22.437 L 325.928 22.852 L 325.513 22.852 L 324.268 19.116 Z M 240.674 30.005 L 237.354 30.835 L 237.354 31.25 L 239.014 31.25 L 241.089 30.42 L 241.089 30.005 L 240.674 30.005 Z M 55.737 18.555 L 55.322 18.555 L 54.907 18.97 L 54.907 22.29 L 55.322 22.29 L 55.737 18.555 Z M 362.085 18.555 L 361.67 18.555 L 361.255 18.97 L 361.255 22.29 L 361.67 22.29 L 362.085 18.555 Z M 249.805 25.439 L 246.899 28.345 A 1.606 1.606 0 0 0 247.442 28.137 Q 248.354 27.617 249.805 25.854 L 249.805 25.439 Z M 10.449 35.327 L 7.129 35.742 L 7.104 36.157 L 8.765 36.157 L 10.864 35.742 L 10.864 35.327 L 10.449 35.327 Z M 445.874 35.327 L 442.554 35.742 L 442.529 36.157 L 444.189 36.157 L 446.289 35.742 L 446.289 35.327 L 445.874 35.327 Z M 404.321 11.646 L 403.906 11.646 L 401.831 14.551 L 402.246 14.551 L 404.321 12.061 L 404.321 11.646 Z M 147.363 7.642 L 149.854 5.566 L 150.269 5.566 L 147.778 7.642 L 147.363 7.642 Z M 155.664 7.227 L 155.249 7.227 L 153.589 8.472 L 153.174 8.887 L 153.174 9.302 L 153.589 9.302 L 155.249 8.057 L 155.664 7.642 L 155.664 7.227 Z M 390.21 9.985 L 389.795 9.985 L 389.38 11.646 L 389.38 12.891 L 389.795 12.891 L 390.21 11.23 L 390.21 9.985 Z M 81.396 20.093 L 80.981 20.044 L 80.786 22.949 L 81.201 22.974 L 81.396 20.093 Z M 283.374 20.093 L 282.959 20.044 L 282.764 22.949 L 283.179 22.974 L 283.374 20.093 Z M 412.549 20.093 L 412.134 20.044 L 411.938 22.949 L 412.354 22.974 L 412.549 20.093 Z M 46.313 6.958 L 44.238 6.543 L 43.823 6.958 L 43.823 7.373 L 46.313 7.788 L 46.313 6.958 Z M 265.43 29.639 L 265.845 30.054 L 266.26 30.054 L 267.09 27.563 A 1.244 1.244 0 0 0 266.564 27.847 Q 265.991 28.338 265.441 29.612 A 11.701 11.701 0 0 0 265.43 29.639 Z M 17.456 29.517 L 17.041 29.517 L 15.259 31.592 L 15.674 31.592 L 17.456 29.517 Z M 452.881 29.517 L 452.466 29.517 L 450.684 31.592 L 451.099 31.592 L 452.881 29.517 Z M 121.655 30.713 L 121.24 28.223 L 122.07 28.223 L 122.07 30.713 L 121.655 30.713 Z M 215.967 30.713 L 215.552 28.223 L 216.382 28.223 L 216.382 30.713 L 215.967 30.713 Z M 274.976 6.812 L 274.976 7.227 L 273.315 8.887 L 272.9 8.887 A 7.891 7.891 0 0 1 273.396 8.08 Q 274.152 7.013 274.976 6.812 Z M 234.448 31.665 L 234.033 31.25 L 234.448 32.495 L 235.278 32.495 L 236.108 31.665 L 236.108 31.25 L 235.693 31.25 L 234.448 31.665 Z M 25.562 26.465 L 25.146 26.465 L 25.562 28.955 L 25.977 28.955 L 25.977 26.88 L 25.562 26.465 Z M 127.466 31.128 L 127.051 31.128 L 127.051 31.958 L 127.466 33.618 L 127.881 33.618 L 127.881 32.788 L 127.466 31.128 Z M 221.777 31.128 L 221.362 31.128 L 221.362 31.958 L 221.777 33.618 L 222.192 33.618 L 222.192 32.788 L 221.777 31.128 Z M 275.806 12.207 L 275.391 12.207 L 274.146 14.282 L 274.561 14.282 L 275.806 12.622 L 275.806 12.207 Z M 404.321 7.495 L 402.661 6.25 Q 403.462 8.063 404.262 8.309 A 0.91 0.91 0 0 0 404.321 8.325 L 404.321 7.495 Z M 308.911 12.476 L 308.496 12.476 L 308.496 12.891 L 308.911 13.306 L 308.496 13.721 L 308.496 14.551 L 308.911 14.551 L 309.326 12.891 L 308.911 12.476 Z M 400.586 31.567 L 400.586 31.982 L 402.246 33.643 A 9.153 9.153 0 0 0 401.891 32.901 Q 401.257 31.727 400.594 31.569 A 0.926 0.926 0 0 0 400.586 31.567 Z M 13.989 32.007 L 11.841 32.837 L 11.841 33.252 L 12.256 33.252 L 13.989 32.007 Z M 449.414 32.007 L 447.266 32.837 L 447.266 33.252 L 447.681 33.252 L 449.414 32.007 Z M 405.566 8.74 L 405.151 8.74 L 404.736 10.815 L 405.151 10.815 L 405.566 10.4 L 405.566 8.74 Z M 56.567 28.516 L 56.152 28.516 L 56.152 29.346 L 56.567 30.591 L 56.982 30.591 L 56.982 29.761 L 56.567 28.516 Z M 362.915 28.516 L 362.5 28.516 L 362.5 29.346 L 362.915 30.591 L 363.33 30.591 L 363.33 29.761 L 362.915 28.516 Z M 259.204 14.282 L 258.789 14.282 L 258.789 16.357 L 259.204 16.357 L 259.204 14.282 Z M 266.675 18.018 L 265.43 19.678 L 265.43 20.093 L 266.675 18.433 L 266.675 18.018 Z M 404.321 35.718 L 402.661 34.473 L 402.661 34.888 L 404.321 36.133 L 404.321 35.718 Z M 109.204 17.847 L 108.374 17.847 L 107.959 19.507 L 108.374 19.507 L 109.204 17.847 Z M 203.516 17.847 L 202.686 17.847 L 202.271 19.507 L 202.686 19.507 L 203.516 17.847 Z M 247.314 8.838 L 246.899 8.838 L 246.899 9.253 L 248.56 10.083 L 248.56 9.668 L 247.314 8.838 Z M 249.805 20.874 L 249.39 20.874 L 248.56 22.534 L 248.975 22.534 L 249.805 20.874 Z M 266.675 17.603 L 267.09 16.357 L 267.505 16.357 L 267.505 17.603 L 267.09 18.018 L 266.675 18.018 L 266.675 17.603 Z M 112.524 17.432 L 112.109 17.432 L 111.694 19.092 L 112.109 19.092 L 112.524 18.677 L 112.524 17.432 Z M 206.836 17.432 L 206.421 17.432 L 206.006 19.092 L 206.421 19.092 L 206.836 18.677 L 206.836 17.432 Z M 149.438 32.129 L 148.193 30.884 L 148.608 30.884 L 149.854 32.129 L 149.438 32.129 Z M 268.75 25.073 L 267.505 26.318 L 267.505 26.733 L 268.75 25.488 L 268.75 25.073 Z M 124.146 31.958 L 122.9 32.373 L 122.9 33.203 L 124.146 32.788 L 124.146 31.958 Z M 218.457 31.958 L 217.212 32.373 L 217.212 33.203 L 218.457 32.788 L 218.457 31.958 Z M 167.432 36.084 L 167.017 36.084 L 167.017 37.744 L 167.432 37.744 L 167.432 36.084 Z M 361.694 2.393 L 360.034 2.393 L 360.034 2.808 L 361.694 2.808 L 361.694 2.393 Z M 388.965 15.381 L 388.965 13.721 L 389.38 13.721 L 389.38 15.381 L 388.965 15.381 Z M 388.55 19.116 L 388.135 19.116 L 388.135 20.776 L 388.55 20.776 L 388.55 19.116 Z M 228.638 34.57 L 229.468 33.74 L 229.883 33.74 L 229.883 34.155 L 229.053 34.985 L 228.638 34.985 L 228.638 34.57 Z M 408.057 13.721 L 408.057 12.476 L 408.887 12.476 L 408.472 13.721 L 408.057 13.721 Z M 110.034 15.771 L 109.619 15.771 L 109.204 16.187 L 109.204 17.017 L 109.619 17.017 L 110.034 15.771 Z M 204.346 15.771 L 203.931 15.771 L 203.516 16.187 L 203.516 17.017 L 203.931 17.017 L 204.346 15.771 Z M 10.449 28.687 L 9.57 29.517 L 9.985 29.517 L 10.864 28.687 L 10.449 28.687 Z M 445.874 28.687 L 444.995 29.517 L 445.41 29.517 L 446.289 28.687 L 445.874 28.687 Z M 174.976 7.446 L 174.146 8.276 L 174.146 8.691 L 174.976 7.861 L 174.976 7.446 Z" vector-effect="non-scaling-stroke"/></g></svg>